<svg xmlns="http://www.w3.org/2000/svg" width="329" height="68" viewBox="0 0 329 68" fill="none"><path fill="#070707" d="M19.3 40H52V27H19.3v-8.6h34.2V2H0v63.1h53.6V49H19.3v-8.8zM234.4.1c-22.7 0-37.3 13.2-37.3 33.5 0 20.2 14.6 33.4 37.3 33.4 23 0 37.5-13.2 37.5-33.4 0-20.3-14.6-33.5-37.5-33.5zm0 49.6c-10.7 0-16.1-7.2-16.1-16.1 0-9 5.1-16.1 16.2-16.1 11 0 16.2 7.2 16.2 16 0 9-5.4 16.2-16.2 16.2zM81.8 2L58 65.2h20.1l3.3-9.2h25.2l3.2 9.2H130L106.1 2H81.8zm4.6 39.9L94 20.3l7.6 21.6H86.4zM165.4 26.6c-10.2-1.7-14.4-3-14.4-7 0-3.8 4-6 10.5-6 8.4 0 14.3 3.6 14.3 12l16.4-6-.1-1C189.7 7.2 177.7 0 161.5 0c-17.2 0-29.8 8.6-29.8 20.5 0 15.4 15.4 18 27.7 20 10 1.6 14.5 3 14.5 6.8 0 3.9-4.6 6.3-11.5 6.3-9.4 0-15.9-4.6-15.4-13.3l-17.2 6.5.1 1.1c2.6 11.9 15 19.2 32.5 19.2 18.3 0 30.6-8 30.6-20.2 0-15.6-15.3-18.2-27.6-20.3zM329 49h-30V2h-19.3v63.2H329V48.9z"/></svg>
